# xmcd CD database file
#
# Track frame offsets:
#	150
#	17752
#	35037
#	49784
#	64913
#	80471
#	96554
#	109747
#	125663
#	139753
#	157412
#	173788
#
# Disc length: 2561 seconds
#
# Revision: 2
# Processed by: cddbd v1.4PL0 Copyright (c) Steve Scherf et al.
# Submitted via: CDex 1.40Beta9
#
DISCID=af09ff0c
DTITLE=Σταμάτης Γονίδης - Μη φύγεις σου λέω
DYEAR=1998
DGENRE=Other
TTITLE0=Ολα τα ξεχνας
TTITLE1=Μη φυγεις σου λεω
TTITLE2=Ελα ελα θελω σε
TTITLE3=Τι δεν εχω εγω
TTITLE4=Τιποτα
TTITLE5=Και με παιρνουν τα κλαματα
TTITLE6=Αρκετα
TTITLE7=Δεν σε ξεχνω
TTITLE8=Θελω να σε τιμωρησω
TTITLE9=Αμφιβαλλεις
TTITLE10=Μια αγαπη δεν τελειωνει
TTITLE11=Πως να σε κρατησω
EXTD=YEAR: 1998 ID3G: 12
EXTT0=
EXTT1=
EXTT2=
EXTT3=
EXTT4=
EXTT5=
EXTT6=
EXTT7=
EXTT8=
EXTT9=
EXTT10=
EXTT11=
PLAYORDER=
